# xmcd CD database file
#
# Track frame offsets:
#	150
#	15585
#	35350
#	53411
#	68880
#	84473
#	103901
#	123819
#	140395
#	157746
#	177804
#	189318
#	208065
#
# Disc length: 2948 seconds
#
# Revision: 2
# Processed by: cddbd v1.5.2PL0 Copyright (c) Steve Scherf et al.
# Submitted via: CDex 1.51
#
DISCID=9e0b820d
DTITLE=Paul Jones and Dave Kelly - Live At The Ram Jam Club
DYEAR=2007
DGENRE=Blues
TTITLE0=Statesboro' Blues
TTITLE1=Drop Down Mama
TTITLE2=Come On In My Kitchen
TTITLE3=Room And Board
TTITLE4=Please See That My Grave Is Kept Clean
TTITLE5=Stranger Blues
TTITLE6=When The Levee Breaks
TTITLE7=Key To The Highway
TTITLE8=Sonny Boy Williamson
TTITLE9=Dust My Blues
TTITLE10=You're Wrong
TTITLE11=When You've Got A Good Friend
TTITLE12=Tuxedo Junction
EXTD=YEAR: 2007
EXTT0=
EXTT1=
EXTT2=
EXTT3=
EXTT4=
EXTT5=
EXTT6=
EXTT7=
EXTT8=
EXTT9=
EXTT10=
EXTT11=
EXTT12=
PLAYORDER=
